<svg width="23" height="29" viewBox="0 0 23 29" fill="none" xmlns="http://www.w3.org/2000/svg">
<path d="M11.625 7C9.89844 7 8.5 8.39844 8.5 10.125V12H17.875C19.2539 12 20.375 13.1211 20.375 14.5V22C20.375 23.3789 19.2539 24.5 17.875 24.5H5.375C3.99609 24.5 2.875 23.3789 2.875 22V14.5C2.875 13.1211 3.99609 12 5.375 12H6V10.125C6 7.01953 8.51953 4.5 11.625 4.5C13.8711 4.5 15.8047 5.81641 16.707 7.71484C17.0039 8.33984 16.7383 9.08594 16.1133 9.37891C15.4883 9.67188 14.7422 9.41016 14.4492 8.78516C13.9453 7.72656 12.8711 7 11.625 7ZM12.875 19.5C13.5664 19.5 14.125 18.9414 14.125 18.25C14.125 17.5586 13.5664 17 12.875 17H10.375C9.68359 17 9.125 17.5586 9.125 18.25C9.125 18.9414 9.68359 19.5 10.375 19.5H12.875Z" fill="black"/>
</svg>
