<svg width="25" height="25" viewBox="0 0 25 25" fill="none" xmlns="http://www.w3.org/2000/svg">
<g clip-path="url(#clip0_10_12)">
<path d="M24.3115 6.93848L22.0605 9.18945C21.8311 9.41895 21.46 9.41895 21.2305 9.18945L15.8105 3.76953C15.5811 3.54004 15.5811 3.16895 15.8105 2.93945L18.0615 0.688477C18.9746 -0.224609 20.459 -0.224609 21.377 0.688477L24.3115 3.62305C25.2295 4.53613 25.2295 6.02051 24.3115 6.93848ZM13.877 4.87305L1.05469 17.6953L0.0195339 23.6279C-0.122068 24.4287 0.576175 25.1221 1.37696 24.9854L7.30957 23.9453L20.1318 11.123C20.3613 10.8936 20.3613 10.5225 20.1318 10.293L14.7119 4.87305C14.4775 4.64356 14.1064 4.64356 13.877 4.87305ZM6.05957 16.5967C5.79102 16.3281 5.79102 15.8984 6.05957 15.6299L13.5791 8.11035C13.8477 7.8418 14.2773 7.8418 14.5459 8.11035C14.8145 8.37891 14.8145 8.80859 14.5459 9.07715L7.02637 16.5967C6.75781 16.8652 6.32813 16.8652 6.05957 16.5967ZM4.29688 20.7031H6.64063V22.4756L3.49121 23.0273L1.97266 21.5088L2.52442 18.3594H4.29688V20.7031Z" fill="black"/>
</g>
<defs>
<clipPath id="clip0_10_12">
<rect width="25" height="25" fill="white"/>
</clipPath>
</defs>
</svg>
