<svg width="20" height="20" viewBox="0 0 20 20" fill="none" xmlns="http://www.w3.org/2000/svg">
<path d="M18.7036 3.95361C19.436 3.22119 19.436 2.03174 18.7036 1.29932C17.9712 0.566895 16.7817 0.566895 16.0493 1.29932L9.87939 7.4751L3.70361 1.30518C2.97119 0.572754 1.78174 0.572754 1.04932 1.30518C0.316895 2.0376 0.316895 3.22705 1.04932 3.95947L7.2251 10.1294L1.05518 16.3052C0.322754 17.0376 0.322754 18.2271 1.05518 18.9595C1.7876 19.6919 2.97705 19.6919 3.70947 18.9595L9.87939 12.7837L16.0552 18.9536C16.7876 19.686 17.9771 19.686 18.7095 18.9536C19.4419 18.2212 19.4419 17.0317 18.7095 16.2993L12.5337 10.1294L18.7036 3.95361Z" fill="black"/>
</svg>
