<svg width="19" height="21" viewBox="0 0 19 21" fill="none" xmlns="http://www.w3.org/2000/svg">
<g clip-path="url(#clip0_92_55)">
<path d="M9.625 10.75C10.9511 10.75 12.2229 10.2232 13.1605 9.28553C14.0982 8.34785 14.625 7.07608 14.625 5.75C14.625 4.42392 14.0982 3.15215 13.1605 2.21447C12.2229 1.27678 10.9511 0.75 9.625 0.75C8.29892 0.75 7.02715 1.27678 6.08947 2.21447C5.15178 3.15215 4.625 4.42392 4.625 5.75C4.625 7.07608 5.15178 8.34785 6.08947 9.28553C7.02715 10.2232 8.29892 10.75 9.625 10.75ZM7.83984 12.625C3.99219 12.625 0.875 15.7422 0.875 19.5898C0.875 20.2305 1.39453 20.75 2.03516 20.75H17.2148C17.8555 20.75 18.375 20.2305 18.375 19.5898C18.375 15.7422 15.2578 12.625 11.4102 12.625H7.83984Z" fill="black"/>
</g>
<defs>
<clipPath id="clip0_92_55">
<rect width="17.5" height="20" fill="white" transform="translate(0.875 0.75)"/>
</clipPath>
</defs>
</svg>
